<?xml version="1.0" encoding="utf-8"?>
<!-- Generator: Adobe Illustrator 17.1.0, SVG Export Plug-In . SVG Version: 6.00 Build 0)  -->
<!DOCTYPE svg PUBLIC "-//W3C//DTD SVG 1.1//EN" "http://www.w3.org/Graphics/SVG/1.1/DTD/svg11.dtd">
<svg version="1.1" id="Layer_1" xmlns="http://www.w3.org/2000/svg" xmlns:xlink="http://www.w3.org/1999/xlink" x="0px" y="0px"
	 viewBox="0 0 120 120" enable-background="new 0 0 120 120" xml:space="preserve">
<g>
	<path fill="#FFFFFF" d="M75.2,1H57.4c-9.2,0-16.7,6-16.7,16h16.7h17.8C89.4,17,101,28.3,101,42.5C101,56.7,89.4,68,75.2,68H57.4
		c-9.2,0-16.7,9-16.7,18h16.7h17.8c23.4,0,42.5-19.1,42.5-42.5C117.6,20.1,98.6,1,75.2,1z"/>
	<path fill="#FFFFFF" d="M44.7,102c-14.2,0-25.8-11.3-25.8-25.5C18.9,62.3,30.5,51,44.7,51h17.8c9.2,0,16.7-8,16.7-17H62.5H44.7
		C21.3,34,2.2,53.1,2.2,76.5c0,23.4,19.1,42.5,42.5,42.5h17.8c9.2,0,16.7-8,16.7-17H62.5H44.7z"/>
</g>
</svg>
